<svg xmlns="http://www.w3.org/2000/svg" xmlns:xlink="http://www.w3.org/1999/xlink" >


<symbol id="icon-facebook" viewBox="0 0 8 16" xmlns="http://www.w3.org/2000/svg">

<path d="M5.1356 15.2172V8.46148H7.40229L7.74236 5.82789H5.1356V4.14673C5.1356 3.38448 5.34641 2.86502 6.4407 2.86502L7.83411 2.86445V0.508871C7.59314 0.477556 6.76598 0.405762 5.80324 0.405762C3.79289 0.405762 2.41657 1.63286 2.41657 3.8859V5.82789H0.143005V8.46148H2.41657V15.2172H5.1356Z" />



</symbol>
<symbol id="icon-instagram" viewBox="0 0 14 14" xmlns="http://www.w3.org/2000/svg">

<path d="M13.9863 4.11604C13.9535 3.37216 13.8332 2.86076 13.6609 2.41762C13.4831 1.94723 13.2096 1.5261 12.8513 1.17601C12.5012 0.820473 12.0773 0.544204 11.6124 0.369213C11.1667 0.196892 10.6579 0.0765988 9.91407 0.0438013C9.16464 0.00822609 8.92673 0 7.02597 0C5.1252 0 4.88729 0.00822609 4.14064 0.0410236C3.39676 0.0738212 2.88536 0.194221 2.44232 0.366435C1.97183 0.544204 1.5507 0.817695 1.20061 1.17601C0.84507 1.5261 0.568908 1.95001 0.39381 2.41495C0.221489 2.86076 0.101196 3.36939 0.0683984 4.11326C0.0328233 4.86269 0.0245972 5.10061 0.0245972 7.00137C0.0245972 8.90213 0.0328233 9.14004 0.0656208 9.8867C0.0984184 10.6306 0.218818 11.142 0.391139 11.5851C0.568908 12.0555 0.84507 12.4766 1.20061 12.8267C1.5507 13.1823 1.97461 13.4585 2.43954 13.6335C2.88536 13.8058 3.39398 13.9261 4.13797 13.9589C4.88451 13.9918 5.12253 14 7.02329 14C8.92406 14 9.16197 13.9918 9.90862 13.9589C10.6525 13.9261 11.1639 13.8058 11.6069 13.6335C12.5478 13.2698 13.2917 12.5259 13.6554 11.5851C13.8277 11.1393 13.9481 10.6306 13.9809 9.8867C14.0137 9.14004 14.0219 8.90213 14.0219 7.00137C14.0219 5.10061 14.0191 4.86269 13.9863 4.11604ZM12.7256 9.832C12.6955 10.5157 12.5806 10.8849 12.4849 11.1311C12.2496 11.741 11.7656 12.225 11.1557 12.4603C10.9095 12.556 10.5377 12.6709 9.8566 12.7009C9.11817 12.7338 8.89671 12.7419 7.02874 12.7419C5.16078 12.7419 4.93654 12.7338 4.20078 12.7009C3.51705 12.6709 3.14784 12.556 2.9017 12.4603C2.59819 12.3481 2.32192 12.1703 2.09768 11.9379C1.86521 11.7109 1.68744 11.4374 1.57527 11.1339C1.47955 10.8877 1.3647 10.5157 1.33468 9.83478C1.30178 9.09635 1.29366 8.87478 1.29366 7.00682C1.29366 5.13885 1.30178 4.91461 1.33468 4.17896C1.3647 3.49523 1.47955 3.12602 1.57527 2.87988C1.68744 2.57626 1.86521 2.3001 2.10046 2.07575C2.32737 1.84329 2.60086 1.66552 2.90448 1.55345C3.15062 1.45773 3.52261 1.34288 4.20356 1.31276C4.94199 1.27996 5.16356 1.27173 7.03141 1.27173C8.90216 1.27173 9.12362 1.27996 9.85937 1.31276C10.5431 1.34288 10.9123 1.45773 11.1585 1.55345C11.462 1.66552 11.7382 1.84329 11.9625 2.07575C12.1949 2.30277 12.3727 2.57626 12.4849 2.87988C12.5806 3.12602 12.6955 3.49791 12.7256 4.17896C12.7584 4.91739 12.7666 5.13885 12.7666 7.00682C12.7666 8.87478 12.7584 9.09357 12.7256 9.832Z" />
<path d="M7.02597 3.40503C5.04049 3.40503 3.42957 5.01585 3.42957 7.00144C3.42957 8.98702 5.04049 10.5978 7.02597 10.5978C9.01156 10.5978 10.6224 8.98702 10.6224 7.00144C10.6224 5.01585 9.01156 3.40503 7.02597 3.40503ZM7.02597 9.33433C5.73789 9.33433 4.69307 8.28962 4.69307 7.00144C4.69307 5.71325 5.73789 4.66854 7.02597 4.66854C8.31416 4.66854 9.35887 5.71325 9.35887 7.00144C9.35887 8.28962 8.31416 9.33433 7.02597 9.33433Z" />
<path d="M11.6043 3.26269C11.6043 3.72634 11.2283 4.10229 10.7646 4.10229C10.3009 4.10229 9.92499 3.72634 9.92499 3.26269C9.92499 2.79893 10.3009 2.4231 10.7646 2.4231C11.2283 2.4231 11.6043 2.79893 11.6043 3.26269Z" />

</symbol>

<symbol id="icon-youtube" viewBox="0 0 14 10" xmlns="http://www.w3.org/2000/svg">

<path d="M13.6902 1.45843L13.7077 1.57276C13.5386 0.972512 13.0818 0.509345 12.5014 0.340762L12.4892 0.337845C11.3977 0.0415119 7.00582 0.041512 7.00582 0.041512C7.00582 0.041512 2.62499 0.0356786 1.52249 0.337845C0.930988 0.509345 0.473655 0.972512 0.307405 1.56051L0.304489 1.57276C-0.103261 3.70251 -0.106178 6.2616 0.322572 8.54185L0.304489 8.42634C0.473655 9.0266 0.930405 9.48976 1.51082 9.65834L1.52307 9.66126C2.61332 9.95818 7.00641 9.95818 7.00641 9.95818C7.00641 9.95818 11.3867 9.95818 12.4897 9.66126C13.0818 9.48976 13.5392 9.0266 13.7054 8.43859L13.7083 8.42634C13.8938 7.43584 14 6.29601 14 5.13168C14 5.08909 14 5.04593 13.9994 5.00276C14 4.96309 14 4.91584 14 4.86859C14 3.70368 13.8938 2.56385 13.6902 1.45843ZM5.60466 7.12959V2.87534L9.25982 5.00568L5.60466 7.12959Z"/>


</symbol>

<symbol id="icon-arrow" width="118" height="46" viewBox="0 0 118 46" >
<g clip-path="url(#clip0_10_285)">
<rect y="59" width="82.4905" height="82.4905" transform="rotate(-45 0 59)" fill="#FEF5E4"/>
<g clip-path="url(#clip1_10_285)">
<path d="M59.556 37.6889L67.9302 29.0124C68.124 28.8117 68.2308 28.5438 68.2308 28.2581C68.2308 27.9725 68.124 27.7046 67.9302 27.5039L67.3136 26.865C66.9118 26.4492 66.2588 26.4492 65.8577 26.865L58.8256 34.1509L51.7856 26.8569C51.5918 26.6562 51.3334 26.5454 51.0578 26.5454C50.782 26.5454 50.5236 26.6562 50.3296 26.8569L49.7132 27.4958C49.5194 27.6967 49.4126 27.9644 49.4126 28.2501C49.4126 28.5357 49.5194 28.8036 49.7132 29.0043L58.095 37.6889C58.2895 37.8901 58.5491 38.0006 58.8251 38C59.1022 38.0006 59.3617 37.8901 59.556 37.6889Z" fill="#333333"/>
</g>
</g>
<defs>
<clipPath id="clip0_10_285">
<rect width="118" height="118" fill="white"/>
</clipPath>
<clipPath id="clip1_10_285">
<rect width="14" height="23" fill="white" transform="matrix(0 1 -1 0 70 24)"/>
</clipPath>
</defs>
</symbol>

<symbol id="icon-play" width="80" height="80" viewBox="0 0 80 80">
<rect x="1" y="1" width="78" height="78" rx="39" stroke="#FFE3C1" stroke-width="2"/>
<g clip-path="url(#clip0_6_60)">
<path fill-rule="evenodd" clip-rule="evenodd" d="M54.3184 41.5762L42.9101 48.1629L31.5018 54.7494C30.923 55.0836 30.2605 55.0836 29.6817 54.7494C29.1029 54.4153 28.7717 53.8415 28.7717 53.1732V40V26.8268C28.7717 26.1585 29.1029 25.5847 29.6817 25.2506C30.2605 24.9164 30.9231 24.9164 31.5018 25.2506L42.9101 31.8372L54.3184 38.4238C54.8972 38.7579 55.2285 39.3317 55.2285 40C55.2285 40.6683 54.8972 41.2421 54.3184 41.5762Z" fill="#FFE3C1"/>
</g>
<defs>
<clipPath id="clip0_6_60">
<rect width="30" height="30" fill="white" transform="translate(27 25)"/>
</clipPath>
</defs>
</symbol>

<symbol id="icon-arrow-right"  viewBox="0 0 12 12" xmlns="http://www.w3.org/2000/svg">

<path d="M1.03927 6.41214H9.56715L7.96948 8.00983C7.51056 8.46874 8.19894 9.15708 8.65786 8.69817L10.1129 7.24086L11.0842 6.26801C11.2725 6.07864 11.2725 5.77279 11.0842 5.58342L8.65786 3.1542C8.56554 3.05934 8.43847 3.00612 8.30608 3.00722C7.86907 3.00727 7.6546 3.53956 7.96948 3.8426L9.57095 5.4403H1.01415C0.341101 5.47369 0.391354 6.44564 1.03927 6.41214Z" />



</symbol>

<symbol id="icon-location"  viewBox="0 0 19 24"  xmlns="http://www.w3.org/2000/svg" >
<path d="M17.0406 4.25127C15.2739 1.62603 12.4744 0.120117 9.36018 0.120117C6.24597 0.120117 3.44644 1.62603 1.68004 4.25127C-0.0777919 6.8632 -0.483642 10.1699 0.592069 13.0914C0.879912 13.8893 1.33713 14.6643 1.94822 15.3907L8.74424 23.5876C8.89811 23.7732 9.12325 23.8801 9.36018 23.8801C9.59712 23.8801 9.82249 23.7732 9.97613 23.5876L16.7703 15.393C17.3842 14.6624 17.8409 13.8883 18.1262 13.0969C19.204 10.1699 18.7982 6.8632 17.0406 4.25127ZM16.6111 12.515C16.3911 13.1256 16.0317 13.7294 15.544 14.3101C15.5426 14.3115 15.5412 14.3129 15.5403 14.3146L9.36018 21.7681L3.17641 14.3096C2.68888 13.7294 2.32954 13.1259 2.10741 12.5093C1.21773 10.0931 1.55533 7.35908 3.01074 5.19597C4.47078 3.02597 6.7851 1.78142 9.36018 1.78142C11.935 1.78142 14.2491 3.02597 15.7092 5.19597C17.165 7.35908 17.5029 10.0931 16.6111 12.515Z" fill="#CC8557"/>
<path d="M9.3603 5.04932C6.86226 5.04932 4.82977 7.13616 4.82977 9.70152C4.82977 12.2669 6.86203 14.3537 9.3603 14.3537C11.8586 14.3537 13.8908 12.2669 13.8908 9.70152C13.8911 7.13639 11.8583 5.04932 9.3603 5.04932ZM9.3603 12.6924C7.75425 12.6924 6.44785 11.3507 6.44785 9.70152C6.44785 8.05234 7.75448 6.71085 9.3603 6.71085C10.9661 6.71085 12.273 8.05258 12.273 9.70152C12.273 11.3505 10.9663 12.6924 9.3603 12.6924Z" />
</symbol>

<symbol id="icon-phone" viewBox="0 0 22 21" xmlns="http://www.w3.org/2000/svg">
<path d="M15.5658 21.0001C14.8919 21.0001 14.2235 20.881 13.57 20.6435C10.6911 19.5977 8.01881 17.8943 5.84198 15.7176C3.66516 13.5408 1.9618 10.8685 0.916007 7.98951C0.579928 7.06431 0.480748 6.10925 0.621321 5.15077C0.753004 4.25297 1.10079 3.38139 1.62707 2.6302C2.15568 1.87575 2.86046 1.24821 3.66512 0.815519C4.52324 0.35412 5.45982 0.120117 6.44897 0.120117C6.75663 0.120117 7.02248 0.335075 7.08696 0.635837L8.1111 5.41515C8.15747 5.63158 8.09095 5.85677 7.93447 6.01325L6.18451 7.76318C7.83534 11.0454 10.5141 13.7241 13.7963 15.3749L15.5462 13.625C15.7027 13.4685 15.9279 13.402 16.1443 13.4483L20.9236 14.4725C21.2245 14.5369 21.4393 14.8028 21.4393 15.1104C21.4393 16.0996 21.2053 17.0362 20.7439 17.8943C20.3112 18.699 19.6837 19.4037 18.9292 19.9323C18.1781 20.4586 17.3065 20.8064 16.4087 20.9381C16.1274 20.9795 15.8461 21.0001 15.5658 21.0001ZM5.92763 1.45362C4.62287 1.59762 3.46484 2.28152 2.69579 3.37911C1.83102 4.61331 1.62935 6.13131 2.14255 7.54402C4.15315 13.0788 8.48074 17.4064 14.0156 19.417C15.4282 19.9302 16.9463 19.7286 18.1805 18.8638C19.2781 18.0948 19.962 16.9367 20.106 15.632L16.218 14.7988L14.3904 16.6264C14.196 16.8209 13.9005 16.8726 13.6517 16.7556C9.76984 14.9319 6.62768 11.7898 4.80402 7.90799C4.6871 7.6591 4.73873 7.36364 4.93321 7.1692L6.76079 5.34163L5.92763 1.45362Z" />
<path d="M20.7878 11.2122C20.4275 11.2122 20.1353 10.92 20.1353 10.5597C20.1353 5.52286 16.0376 1.42508 11.0007 1.42508C10.6404 1.42508 10.3482 1.13292 10.3482 0.772617C10.3482 0.412315 10.6404 0.120117 11.0007 0.120117C13.7892 0.120117 16.4109 1.206 18.3826 3.17777C20.3544 5.14955 21.4403 7.77113 21.4403 10.5597C21.4403 10.92 21.1482 11.2122 20.7878 11.2122Z" />
<path d="M18.178 11.2121C17.8177 11.2121 17.5256 10.9199 17.5256 10.5596C17.5256 6.96189 14.5986 4.0349 11.0008 4.0349C10.6405 4.0349 10.3484 3.74274 10.3484 3.38244C10.3484 3.02214 10.6405 2.72998 11.0008 2.72998C15.3182 2.72998 18.8305 6.24235 18.8305 10.5597C18.8305 10.9199 18.5384 11.2121 18.178 11.2121Z" />
<path d="M15.568 11.2121C15.2077 11.2121 14.9155 10.9199 14.9155 10.5596C14.9155 8.40093 13.1594 6.64476 11.0007 6.64476C10.6404 6.64476 10.3482 6.35261 10.3482 5.9923C10.3482 5.632 10.6404 5.33984 11.0007 5.33984C13.8789 5.33984 16.2205 7.68142 16.2205 10.5596C16.2205 10.9199 15.9284 11.2121 15.568 11.2121Z" />
</symbol>

<symbol id="icon-mail" viewBox="0 0 22 17" xmlns="http://www.w3.org/2000/svg">
        <path d="M20.0662 0H1.9338C0.869 0 0 0.880436 0 1.96173V15.0388C0 16.1162 0.8646 17.0006 1.9338 17.0006H20.0668C21.1288 17.0006 22.0006 16.1235 22.0006 15.0388V1.96173C22 0.883783 21.1354 0 20.0662 0ZM19.7995 1.30782L11.0413 10.1925L2.2066 1.30782H19.7995ZM1.2892 14.7677V2.2262L7.49705 8.46959L1.2892 14.7677ZM2.20055 15.6922L8.4128 9.3902L10.5897 11.5796C10.8416 11.8329 11.2481 11.8323 11.4994 11.5773L13.6219 9.42423L19.8 15.6916H2.20055V15.6922ZM20.7108 14.7677L14.5327 8.49972L20.7108 2.23233V14.7677Z" />
</symbol>

</svg>